<?xml version="1.0" encoding="UTF-8" standalone="no"?>
<!-- Created with Inkscape (http://www.inkscape.org/) -->

<svg
   xmlns:dc="http://purl.org/dc/elements/1.1/"
   xmlns:cc="http://creativecommons.org/ns#"
   xmlns:rdf="http://www.w3.org/1999/02/22-rdf-syntax-ns#"
   xmlns:svg="http://www.w3.org/2000/svg"
   xmlns="http://www.w3.org/2000/svg"
   xmlns:sodipodi="http://sodipodi.sourceforge.net/DTD/sodipodi-0.dtd"
   xmlns:inkscape="http://www.inkscape.org/namespaces/inkscape"
   id="svg2"
   version="1.1"
   inkscape:version="0.91 r13725"
   xml:space="preserve"
   width="500"
   height="800"
   viewBox="0 0 500 800"
   sodipodi:docname="Logo Issy-les-Moulineaux.svg"><metadata
     id="metadata8"><rdf:RDF><cc:Work
         rdf:about=""><dc:format>image/svg+xml</dc:format><dc:type
           rdf:resource="http://purl.org/dc/dcmitype/StillImage" /><dc:title></dc:title></cc:Work></rdf:RDF></metadata><defs
     id="defs6" /><sodipodi:namedview
     pagecolor="#ffffff"
     bordercolor="#666666"
     borderopacity="1"
     objecttolerance="10"
     gridtolerance="10"
     guidetolerance="10"
     inkscape:pageopacity="0"
     inkscape:pageshadow="2"
     inkscape:window-width="1440"
     inkscape:window-height="788"
     id="namedview4"
     showgrid="false"
     inkscape:zoom="0.45254834"
     inkscape:cx="247.44007"
     inkscape:cy="322.0731"
     inkscape:window-x="0"
     inkscape:window-y="1"
     inkscape:window-maximized="1"
     inkscape:current-layer="g10" /><g
     id="g10"
     inkscape:groupmode="layer"
     inkscape:label="cine_plein_air_2018_web"
     transform="matrix(1.25,0,0,-1.25,0,800.00003)"><g
       id="g248271"
       transform="matrix(26.011121,0,0,26.011121,-4687.8341,-1041.4572)"><path
         d="m 182.0647,42.111 c -3.451,5.207 -0.885,20.004 2.035,22.379 0,0 0.708,-0.274 0.354,-0.731 -0.354,-0.456 -4.955,-8.038 -2.566,-19.73 l -0.487,1.119 c 0,0 0.244,-1.439 0.487,-1.758 0,0 -0.531,0.662 -0.575,0.982 l 0.752,-2.261 z"
         style="fill:#1478c7;fill-opacity:1;fill-rule:nonzero;stroke:none"
         id="path243212"
         inkscape:connector-curvature="0" /><path
         d="m 183.9396,58.748 c 0.671,2.497 1.549,4.452 2.461,5.194 0,0 0.708,-0.274 0.354,-0.731 -0.16,-0.206 -1.183,-1.86 -2.04,-4.688 l -0.775,0.225 z"
         style="fill:#1478c7;fill-opacity:1;fill-rule:nonzero;stroke:none"
         id="path243216"
         inkscape:connector-curvature="0" /><path
         d="m 183.7443,46.7183 c 0.11,-0.998 0.27,-2.032 0.488,-3.1 l -0.486,1.119 c 0,0 0.243,-1.439 0.486,-1.758 0,0 -0.531,0.662 -0.575,0.981 l 0.752,-2.26 c -0.793,1.196 -1.268,2.899 -1.494,4.842 l 0.829,0.176 z"
         style="fill:#1478c7;fill-opacity:1;fill-rule:nonzero;stroke:none"
         id="path243220"
         inkscape:connector-curvature="0" /><path
         d="m 181.0028,45.7647 c 1.604,0.993 7.388,1.279 8.893,1.279 1.504,0 5.442,-0.822 5.442,-0.822 -0.884,5.846 0.089,13.153 0.089,13.153 -1.106,-0.045 -5.752,-0.685 -8.008,-0.685 -2.084,0 -4.823,0.685 -4.823,0.685 0.442,-0.685 0.619,-10.093 0.221,-11.737 l 0.752,-0.046 c 0,0 0.575,9.637 -0.221,11.007 0,0 4.557,-1.644 11.681,0.319 0,0 -1.372,-8.175 0,-12.377 0,0 -3.983,2.512 -13.053,0 l 0.786,0.08 -1.372,-0.434 0.741,0.149 c 0,0 -0.598,-0.243 -1.128,-0.571"
         style="fill:#008a5c;fill-opacity:1;fill-rule:nonzero;stroke:none"
         id="path243224"
         inkscape:connector-curvature="0" /><path
         d="m 186.3123,40.1927 c -3.451,5.207 -0.885,20.004 2.035,22.379 0,0 0.708,-0.274 0.354,-0.73 -0.354,-0.457 -4.955,-8.039 -2.566,-19.731 l -0.487,1.119 c 0,0 0.244,-1.439 0.487,-1.758 0,0 -0.531,0.662 -0.575,0.982 l 0.752,-2.261 z"
         style="fill:#1478c7;fill-opacity:1;fill-rule:nonzero;stroke:none"
         id="path243228"
         inkscape:connector-curvature="0" /></g><g
       id="g248242"
       transform="matrix(26.011121,0,0,26.011121,-4688.6341,-1041.4572)"><g
         id="g248221"><path
           inkscape:connector-curvature="0"
           id="path243232"
           style="fill:#231f20;fill-opacity:1;fill-rule:nonzero;stroke:none"
           d="m 187.1491,49.3203 c 0,-0.157 0.042,-0.198 0.092,-0.198 l 0,-0.063 -0.571,0 0,0.063 c 0.049,0 0.092,0.041 0.092,0.198 l 0,3.277 c 0,0.157 -0.043,0.199 -0.092,0.199 l 0,0.062 0.571,0 0,-0.062 c -0.05,0 -0.092,-0.042 -0.092,-0.199 l 0,-3.277 z" /><path
           inkscape:connector-curvature="0"
           id="path243236"
           style="fill:#231f20;fill-opacity:1;fill-rule:nonzero;stroke:none"
           d="m 187.7884,50.2075 0.036,-0.031 c -0.003,-0.026 -0.003,-0.052 -0.003,-0.079 0,-0.276 0.4,-0.568 0.731,-0.568 0.286,0 0.483,0.193 0.483,0.626 0,0.95 -1.408,0.162 -1.408,1.649 0,0.71 0.368,1.106 0.886,1.106 0.246,0 0.417,-0.083 0.538,-0.167 0.122,-0.083 0.194,-0.167 0.233,-0.167 0.02,0 0.049,0.011 0.076,0.058 l 0.032,-0.021 -0.229,-0.788 -0.043,0.031 c 0.003,0.016 0.003,0.037 0.003,0.058 0,0.276 -0.341,0.474 -0.63,0.474 -0.37,0 -0.492,-0.24 -0.492,-0.563 0,-0.846 1.421,-0.089 1.421,-1.639 0,-0.704 -0.354,-1.179 -0.873,-1.179 -0.61,0 -0.876,0.464 -0.912,0.459 -0.016,-0.005 -0.036,-0.016 -0.049,-0.042 l -0.04,0.026 0.24,0.757 z" /><path
           inkscape:connector-curvature="0"
           id="path243240"
           style="fill:#231f20;fill-opacity:1;fill-rule:nonzero;stroke:none"
           d="m 189.9767,50.2075 0.036,-0.031 c -0.003,-0.026 -0.003,-0.052 -0.003,-0.079 0,-0.276 0.4,-0.568 0.731,-0.568 0.286,0 0.483,0.193 0.483,0.626 0,0.95 -1.408,0.162 -1.408,1.649 0,0.71 0.368,1.106 0.886,1.106 0.246,0 0.417,-0.083 0.538,-0.167 0.122,-0.083 0.194,-0.167 0.233,-0.167 0.02,0 0.049,0.011 0.076,0.058 l 0.032,-0.021 -0.229,-0.788 -0.043,0.031 c 0.003,0.016 0.003,0.037 0.003,0.058 0,0.276 -0.341,0.474 -0.63,0.474 -0.37,0 -0.492,-0.24 -0.492,-0.563 0,-0.846 1.421,-0.089 1.421,-1.639 0,-0.704 -0.354,-1.179 -0.873,-1.179 -0.61,0 -0.876,0.464 -0.912,0.459 -0.016,-0.005 -0.036,-0.016 -0.049,-0.042 l -0.04,0.026 0.24,0.757 z" /><path
           inkscape:connector-curvature="0"
           id="path243244"
           style="fill:#231f20;fill-opacity:1;fill-rule:nonzero;stroke:none"
           d="m 192.398,52.8585 0,-0.063 c -0.043,-0.01 -0.059,-0.026 -0.059,-0.067 0,-0.042 0.02,-0.084 0.029,-0.115 l 0.46,-1.3 0.433,1.347 c 0.006,0.015 0.01,0.036 0.01,0.068 0,0.031 -0.013,0.057 -0.046,0.067 l 0,0.063 0.525,0 0,-0.063 c -0.095,-0.047 -0.115,-0.12 -0.167,-0.281 l -0.578,-1.764 0,-1.43 c 0,-0.157 0.043,-0.198 0.092,-0.198 l 0,-0.063 -0.571,0 0,0.063 c 0.049,0 0.092,0.041 0.092,0.198 l 0,1.43 -0.67,1.884 c -0.019,0.057 -0.052,0.141 -0.121,0.161 l 0,0.063 0.571,0 z" /></g><g
         id="g248227"><path
           inkscape:connector-curvature="0"
           id="path243248"
           style="fill:#231f20;fill-opacity:1;fill-rule:nonzero;stroke:none"
           d="m 186.9,48.2018 c 0.017,0 0.022,0.007 0.023,0.02 l 0.009,0 0,-0.125 -0.009,0 c -0.001,0.013 -0.006,0.02 -0.023,0.02 l -0.288,0 0,0.012 c 0.011,0 0.018,0.012 0.018,0.027 l 0,0.526 c 0,0.016 -0.007,0.028 -0.018,0.028 l 0,0.012 0.111,0 0,-0.012 c -0.011,0 -0.018,-0.012 -0.018,-0.028 l 0,-0.48 0.195,0 z" /><path
           inkscape:connector-curvature="0"
           id="path243252"
           style="fill:#231f20;fill-opacity:1;fill-rule:nonzero;stroke:none"
           d="m 187.3672,48.3665 -0.009,0 c -0.001,0.013 -0.006,0.02 -0.023,0.02 l -0.127,0 0,-0.185 0.213,0 c 0.017,0 0.022,0.007 0.023,0.02 l 0.009,0 0,-0.125 -0.009,0 c -0.001,0.013 -0.006,0.02 -0.023,0.02 l -0.305,0 0,0.012 c 0.01,0 0.018,0.012 0.018,0.028 l 0,0.525 c 0,0.016 -0.008,0.028 -0.018,0.028 l 0,0.012 0.303,0 c 0.018,0 0.023,0.007 0.024,0.02 l 0.008,0 0,-0.125 -0.008,0 c -10e-4,0.013 -0.006,0.02 -0.024,0.02 l -0.211,0 0,-0.165 0.127,0 c 0.017,0 0.022,0.007 0.023,0.02 l 0.009,0 0,-0.125 z" /><path
           inkscape:connector-curvature="0"
           id="path243256"
           style="fill:#231f20;fill-opacity:1;fill-rule:nonzero;stroke:none"
           d="m 187.697,48.2981 0.007,-0.006 0,-0.014 c 0,-0.045 0.07,-0.086 0.133,-0.086 0.049,0 0.086,0.032 0.086,0.099 0,0.143 -0.262,0.022 -0.262,0.256 0,0.105 0.057,0.184 0.156,0.184 0.052,0 0.089,-0.014 0.114,-0.028 0.025,-0.014 0.038,-0.029 0.043,-0.029 0.003,0 0.006,0.002 0.009,0.005 l 0.007,-0.004 -0.045,-0.118 -0.007,0.005 c 0,0.047 -0.041,0.084 -0.112,0.084 -0.061,0 -0.096,-0.032 -0.096,-0.081 0,-0.151 0.264,-0.026 0.264,-0.269 0,-0.12 -0.068,-0.189 -0.164,-0.189 -0.053,0 -0.09,0.015 -0.116,0.031 -0.026,0.017 -0.044,0.033 -0.05,0.033 -0.003,0 -0.004,-0.002 -0.006,-0.003 l -0.006,0.006 0.045,0.124 z" /><path
           inkscape:connector-curvature="0"
           id="path243260"
           style="fill:#231f20;fill-opacity:1;fill-rule:nonzero;stroke:none"
           d="m 188.5877,48.7891 c 0,0.03 -0.009,0.038 -0.02,0.038 l 0,0.011 0.142,0 0,-0.011 c -0.01,-0.001 -0.011,-0.008 -0.011,-0.014 0,-0.006 0.003,-0.016 0.007,-0.029 l 0.105,-0.406 0.002,0 0.115,0.418 c 0.002,0.006 0.002,0.01 0.002,0.015 0,0.01 -0.003,0.014 -0.012,0.016 l 0,0.011 0.14,0 0,-0.011 c -0.011,0 -0.021,-0.008 -0.021,-0.038 l 0,-0.623 c 0,-0.03 0.01,-0.038 0.021,-0.038 l 0,-0.011 -0.12,0 0,0.011 c 0.011,0 0.021,0.008 0.021,0.038 l 0,0.495 -0.002,0 -0.145,-0.544 -0.148,0.544 -0.002,0 0,-0.495 c 0,-0.03 0.01,-0.038 0.021,-0.038 l 0,-0.011 -0.115,0 0,0.011 c 0.011,0 0.02,0.008 0.02,0.038 l 0,0.623 z" /><path
           inkscape:connector-curvature="0"
           id="path243264"
           style="fill:#231f20;fill-opacity:1;fill-rule:nonzero;stroke:none"
           d="m 189.4568,48.1067 c -0.124,0 -0.198,0.125 -0.198,0.312 0,0.188 0.074,0.313 0.198,0.313 0.124,0 0.199,-0.125 0.199,-0.313 0,-0.187 -0.075,-0.312 -0.199,-0.312 m 0,0.539 c -0.081,0 -0.124,-0.081 -0.124,-0.227 0,-0.145 0.043,-0.227 0.124,-0.227 0.081,0 0.124,0.082 0.124,0.227 0,0.146 -0.043,0.227 -0.124,0.227" /><path
           inkscape:connector-curvature="0"
           id="path243268"
           style="fill:#231f20;fill-opacity:1;fill-rule:nonzero;stroke:none"
           d="m 189.9667,48.7216 0,-0.012 c -0.011,0 -0.018,-0.012 -0.018,-0.028 l 0,-0.355 c 0,-0.099 0.023,-0.135 0.092,-0.135 0.069,0 0.092,0.036 0.092,0.135 l 0,0.355 c 0,0.016 -0.007,0.028 -0.018,0.028 l 0,0.012 0.112,0 0,-0.012 c -0.011,0 -0.019,-0.012 -0.019,-0.028 l 0,-0.371 c 0,-0.166 -0.076,-0.204 -0.167,-0.204 -0.091,0 -0.166,0.038 -0.166,0.204 l 0,0.371 c 0,0.016 -0.009,0.028 -0.02,0.028 l 0,0.012 0.112,0 z" /><path
           inkscape:connector-curvature="0"
           id="path243272"
           style="fill:#231f20;fill-opacity:1;fill-rule:nonzero;stroke:none"
           d="m 190.7275,48.2018 c 0.017,0 0.023,0.007 0.023,0.02 l 0.009,0 0,-0.125 -0.009,0 c 0,0.013 -0.006,0.02 -0.023,0.02 l -0.288,0 0,0.012 c 0.011,0 0.018,0.012 0.018,0.027 l 0,0.526 c 0,0.016 -0.007,0.028 -0.018,0.028 l 0,0.012 0.111,0 0,-0.012 c -0.011,0 -0.018,-0.012 -0.018,-0.028 l 0,-0.48 0.195,0 z" /><path
           inkscape:connector-curvature="0"
           id="path243276"
           style="fill:#231f20;fill-opacity:1;fill-rule:nonzero;stroke:none"
           d="m 190.9527,48.1166 0,0.012 c 0.011,0 0.018,0.012 0.018,0.028 l 0,0.525 c 0,0.016 -0.007,0.028 -0.018,0.028 l 0,0.012 0.111,0 0,-0.012 c -0.011,0 -0.019,-0.012 -0.019,-0.028 l 0,-0.525 c 0,-0.016 0.008,-0.028 0.019,-0.028 l 0,-0.012 -0.111,0 z" /><path
           inkscape:connector-curvature="0"
           id="path243280"
           style="fill:#231f20;fill-opacity:1;fill-rule:nonzero;stroke:none"
           d="m 191.6371,48.1562 c 0,-0.016 0.009,-0.028 0.02,-0.028 l 0,-0.012 -0.117,0 0,0.012 c 0.013,0 0.016,0.006 0.016,0.013 0,0.012 -0.011,0.036 -0.016,0.048 l -0.171,0.384 -0.002,0 0,-0.417 c 0,-0.016 0.008,-0.028 0.019,-0.028 l 0,-0.012 -0.101,0 0,0.012 c 0.011,0 0.018,0.012 0.018,0.028 l 0,0.526 c 0,0.015 -0.007,0.028 -0.018,0.028 l 0,0.012 0.124,0 0,-0.012 c -0.008,-10e-4 -0.013,-0.005 -0.013,-0.015 0,-0.014 0.007,-0.025 0.014,-0.041 l 0.162,-0.353 0.001,0 0,0.381 c 0,0.015 -0.007,0.028 -0.018,0.028 l 0,0.012 0.102,0 0,-0.012 c -0.011,0 -0.02,-0.013 -0.02,-0.028 l 0,-0.526 z" /><path
           inkscape:connector-curvature="0"
           id="path243284"
           style="fill:#231f20;fill-opacity:1;fill-rule:nonzero;stroke:none"
           d="m 192.1211,48.3665 -0.009,0 c -0.001,0.013 -0.006,0.02 -0.023,0.02 l -0.127,0 0,-0.185 0.213,0 c 0.017,0 0.022,0.007 0.023,0.02 l 0.009,0 0,-0.125 -0.009,0 c -0.001,0.013 -0.006,0.02 -0.023,0.02 l -0.305,0 0,0.012 c 0.01,0 0.017,0.012 0.017,0.028 l 0,0.525 c 0,0.016 -0.007,0.028 -0.017,0.028 l 0,0.012 0.303,0 c 0.018,0 0.023,0.007 0.023,0.02 l 0.009,0 0,-0.125 -0.009,0 c 0,0.013 -0.005,0.02 -0.023,0.02 l -0.211,0 0,-0.165 0.127,0 c 0.017,0 0.022,0.007 0.023,0.02 l 0.009,0 0,-0.125 z" /><path
           inkscape:connector-curvature="0"
           id="path243288"
           style="fill:#231f20;fill-opacity:1;fill-rule:nonzero;stroke:none"
           d="m 192.3846,48.1166 0,0.012 c 0.015,0.003 0.018,0.022 0.025,0.046 l 0.121,0.504 c 0.002,0.005 0.002,0.013 0.002,0.018 0,0.007 -0.003,0.012 -0.009,0.013 l 0,0.012 0.118,0 0,-0.012 c -0.006,-0.002 -0.009,-0.007 -0.009,-0.016 0,-0.008 0,-0.018 0.005,-0.036 l 0.117,-0.497 c 0.006,-0.024 0.008,-0.03 0.02,-0.032 l 0,-0.012 -0.099,0 0,0.012 c 0.006,0 0.008,0.003 0.008,0.011 0,0.006 -0.002,0.017 -0.004,0.024 l -0.03,0.116 -0.149,0 -0.03,-0.114 c -0.002,-0.008 -0.003,-0.014 -0.003,-0.021 0,-0.011 0.003,-0.014 0.012,-0.016 l 0,-0.012 -0.095,0 z m 0.136,0.248 0.111,0 -0.054,0.242 -0.002,0 -0.055,-0.242 z" /><path
           inkscape:connector-curvature="0"
           id="path243292"
           style="fill:#231f20;fill-opacity:1;fill-rule:nonzero;stroke:none"
           d="m 193.0692,48.7216 0,-0.012 c -0.011,0 -0.018,-0.012 -0.018,-0.028 l 0,-0.355 c 0,-0.099 0.023,-0.135 0.092,-0.135 0.069,0 0.092,0.036 0.092,0.135 l 0,0.355 c 0,0.016 -0.007,0.028 -0.018,0.028 l 0,0.012 0.112,0 0,-0.012 c -0.011,0 -0.019,-0.012 -0.019,-0.028 l 0,-0.371 c 0,-0.166 -0.076,-0.204 -0.167,-0.204 -0.091,0 -0.166,0.038 -0.166,0.204 l 0,0.371 c 0,0.016 -0.009,0.028 -0.02,0.028 l 0,0.012 0.112,0 z" /><path
           inkscape:connector-curvature="0"
           id="path243296"
           style="fill:#231f20;fill-opacity:1;fill-rule:nonzero;stroke:none"
           d="m 193.5217,48.1166 0,0.012 c 0.02,0.001 0.026,0.01 0.044,0.054 l 0.103,0.247 -0.102,0.247 c -0.008,0.021 -0.013,0.033 -0.029,0.033 l 0,0.012 0.124,0 0,-0.012 c -0.011,-0.002 -0.016,-0.006 -0.016,-0.017 0,-0.006 0.002,-0.019 0.006,-0.028 l 0.059,-0.137 0.062,0.141 c 0.004,0.008 0.007,0.013 0.007,0.021 0,0.008 -0.002,0.018 -0.015,0.02 l 0,0.012 0.116,0 0,-0.012 c -0.014,-0.004 -0.022,-0.008 -0.028,-0.026 l -0.106,-0.246 0.121,-0.285 c 0.006,-0.015 0.014,-0.024 0.026,-0.024 l 0,-0.012 -0.118,0 0,0.012 c 0.011,0 0.013,0.005 0.013,0.01 0,0.005 -0.005,0.017 -0.009,0.027 l -0.073,0.177 -0.072,-0.164 c -0.006,-0.014 -0.011,-0.025 -0.011,-0.033 0,-0.01 0.003,-0.017 0.011,-0.017 l 0,-0.012 -0.113,0 z" /></g><g
         id="g248212"><path
           inkscape:connector-curvature="0"
           id="path243300"
           style="fill:#231f20;fill-opacity:1;fill-rule:nonzero;stroke:none"
           d="m 186.9618,53.9388 0,-0.012 c -0.01,-0.003 -0.015,-0.01 -0.015,-0.021 0,-0.005 0.002,-0.013 0.003,-0.021 l 0.121,-0.512 0.002,0 0.118,0.525 c 0.001,0.003 0.001,0.008 0.001,0.014 0,0.008 -0.002,0.014 -0.012,0.015 l 0,0.012 0.11,0 0,-0.012 c -0.016,-0.01 -0.021,-0.019 -0.024,-0.035 l -0.144,-0.629 c -0.001,-0.007 -0.002,-0.013 -0.002,-0.02 0,-0.009 0.004,-0.014 0.011,-0.014 l 0,-0.012 -0.117,0 0,0.012 c 0.005,0 0.008,0.004 0.008,0.011 0,0.007 -0.001,0.012 -0.003,0.017 l -0.155,0.634 c -0.005,0.017 -0.01,0.033 -0.024,0.036 l 0,0.012 0.122,0 z" /><path
           inkscape:connector-curvature="0"
           id="path243304"
           style="fill:#231f20;fill-opacity:1;fill-rule:nonzero;stroke:none"
           d="m 187.9347,53.2166 0,0.012 c 0.011,0 0.018,0.012 0.018,0.028 l 0,0.525 c 0,0.016 -0.007,0.028 -0.018,0.028 l 0,0.012 0.11,0 0,-0.012 c -0.01,0 -0.018,-0.012 -0.018,-0.028 l 0,-0.525 c 0,-0.016 0.008,-0.028 0.018,-0.028 l 0,-0.012 -0.11,0 z" /><path
           inkscape:connector-curvature="0"
           id="path243308"
           style="fill:#231f20;fill-opacity:1;fill-rule:nonzero;stroke:none"
           d="m 188.9967,53.3018 c 0.017,0 0.022,0.007 0.023,0.02 l 0.009,0 0,-0.125 -0.009,0 c -0.001,0.013 -0.006,0.02 -0.023,0.02 l -0.288,0 0,0.012 c 0.011,0 0.018,0.012 0.018,0.027 l 0,0.526 c 0,0.016 -0.007,0.028 -0.018,0.028 l 0,0.012 0.111,0 0,-0.012 c -0.011,0 -0.018,-0.012 -0.018,-0.028 l 0,-0.48 0.195,0 z" /><path
           inkscape:connector-curvature="0"
           id="path243312"
           style="fill:#231f20;fill-opacity:1;fill-rule:nonzero;stroke:none"
           d="m 189.9419,53.3018 c 0.017,0 0.023,0.007 0.023,0.02 l 0.009,0 0,-0.125 -0.009,0 c 0,0.013 -0.006,0.02 -0.023,0.02 l -0.288,0 0,0.012 c 0.011,0 0.018,0.012 0.018,0.027 l 0,0.526 c 0,0.016 -0.007,0.028 -0.018,0.028 l 0,0.012 0.111,0 0,-0.012 c -0.011,0 -0.018,-0.012 -0.018,-0.028 l 0,-0.48 0.195,0 z" /><path
           inkscape:connector-curvature="0"
           id="path243316"
           style="fill:#231f20;fill-opacity:1;fill-rule:nonzero;stroke:none"
           d="m 190.8508,53.4666 -0.009,0 c -0.001,0.013 -0.006,0.02 -0.023,0.02 l -0.127,0 0,-0.185 0.213,0 c 0.017,0 0.022,0.007 0.023,0.02 l 0.009,0 0,-0.125 -0.009,0 c -0.001,0.013 -0.006,0.02 -0.023,0.02 l -0.305,0 0,0.012 c 0.01,0 0.018,0.012 0.018,0.028 l 0,0.525 c 0,0.016 -0.008,0.028 -0.018,0.028 l 0,0.012 0.303,0 c 0.018,0 0.023,0.007 0.024,0.02 l 0.008,0 0,-0.125 -0.008,0 c -10e-4,0.013 -0.006,0.02 -0.024,0.02 l -0.211,0 0,-0.165 0.127,0 c 0.017,0 0.022,0.007 0.023,0.02 l 0.009,0 0,-0.125 z" /><path
           inkscape:connector-curvature="0"
           id="path243320"
           style="fill:#231f20;fill-opacity:1;fill-rule:nonzero;stroke:none"
           d="m 192.4066,53.7819 c 0,0.016 -0.007,0.028 -0.018,0.028 l 0,0.012 0.166,0 c 0.138,0 0.213,-0.1 0.213,-0.296 0,-0.21 -0.067,-0.309 -0.218,-0.309 l -0.161,0 0,0.012 c 0.011,0 0.018,0.012 0.018,0.027 l 0,0.526 z m 0.074,-0.48 0.067,0 c 0.104,0 0.145,0.05 0.145,0.22 0,0.159 -0.048,0.214 -0.15,0.214 l -0.062,0 0,-0.434 z" /><path
           inkscape:connector-curvature="0"
           id="path243324"
           style="fill:#231f20;fill-opacity:1;fill-rule:nonzero;stroke:none"
           d="m 193.476,53.6768 c -0.002,-0.019 -0.002,-0.042 -0.017,-0.042 -0.016,0 -0.016,0.023 -0.018,0.042 l -0.014,0.191 c -0.001,0.007 -0.001,0.018 -0.001,0.031 0,0.035 0.012,0.05 0.033,0.05 0.02,0 0.032,-0.015 0.032,-0.05 0,-0.013 0,-0.024 0,-0.031 l -0.015,-0.191 z" /></g></g></g></svg>